<svg id="Layer_1" data-name="Layer 1" xmlns="http://www.w3.org/2000/svg" viewBox="0 0 369.38 53.32"><defs><style>.cls-1{fill:#fff;}.cls-2{fill:#c02222;}.cls-3{fill:#274174;}</style></defs><title>Keytracker Logo_Digital (Coloured Background)</title><path class="cls-1" d="M362.34,45.8a28.73,28.73,0,0,1-5.46,7.53l-.69.66c-.17.13-.34.26-.47.35l-.08.05-.07.06a23.77,23.77,0,0,1-6.7,4l-.06,0a26.22,26.22,0,0,1-10.51,1.89H141.95a26.23,26.23,0,0,1-10.51-1.89h0a28.18,28.18,0,0,1-5.54-3.19l-1-.72-1,.74a23.84,23.84,0,0,1-5.68,3.15l-.06,0a26.22,26.22,0,0,1-10.51,1.89H30.75a26.23,26.23,0,0,1-10.51-1.89h0a32.11,32.11,0,0,1-8-5.14A29.16,29.16,0,0,1,6.72,45.8a26.35,26.35,0,0,1,5.71-31.51l1-.92a25.08,25.08,0,0,1,8.1-4.51h0a26,26,0,0,1,6.32-1.31h0a35.1,35.1,0,0,1,3.57-.15l3.14,0h69.23l3.14,0a35.1,35.1,0,0,1,3.57.15h0a26,26,0,0,1,6.32,1.31h0a25.71,25.71,0,0,1,7,3.59l1,.72,1-.73a25.26,25.26,0,0,1,6.91-3.59h0a26,26,0,0,1,6.32-1.31h0a35.26,35.26,0,0,1,3.57-.15l3.14,0H334.47l3.14,0a35.09,35.09,0,0,1,3.57.15h0a26,26,0,0,1,6.32,1.31h0a25.71,25.71,0,0,1,8.19,4.54l1,.9A26.34,26.34,0,0,1,362.34,45.8Z" transform="translate(-3.8 -7)"/><path class="cls-2" d="M116.83,33.67a24.43,24.43,0,0,1,8-18.08,1.4,1.4,0,0,1-.17-.13c-5-4.46-10.85-6.3-17.49-6.25-9.69.08-19.39,0-29.08,0-15.93,0-31.87-.12-47.81,0C12.14,9.44.44,28.88,8.8,44.91,13.54,54,21.27,58.39,31.51,58.39q38.11,0,76.24,0A23.14,23.14,0,0,0,119,55.91c2.1-1.15,4.05-2.52,6.15-3.88A24.37,24.37,0,0,1,116.83,33.67ZM52,49.33a4.59,4.59,0,0,1-3-1.43c-3-3.06-5.88-6.26-8.82-9.41-.43-.46-.89-.89-1.66-1.64,0,3.32.05,6.23,0,9.13-.05,2.73-2.25,4.31-4.37,3.06a3.57,3.57,0,0,1-1.62-2.49c-.13-7.63-.11-15.27-.07-22.92a2.89,2.89,0,0,1,3-2.91,2.75,2.75,0,0,1,2.94,2.76c.12,2.1.08,4.2.11,6.3,0,.55,0,1.12,0,2.17L46.91,23c.45-.46.86-1,1.35-1.39a3,3,0,0,1,4.33,0,2.76,2.76,0,0,1-.13,4.05c-2.38,2.48-4.85,4.87-7.28,7.31-.31.3-.59.62-1.06,1.1,1.36,1.46,2.71,2.88,4.05,4.31,2,2.06,4,4.05,5.83,6.23C55.65,46.64,54.59,49.22,52,49.33Zm23.79-.2c-3.28.05-6.56.07-9.84,0-2.25-.05-3.18-1.08-3.18-3.38q0-10.48,0-21c0-2.79,1.05-3.78,3.81-3.8s5.38,0,8.08,0,3.9.92,3.9,2.77-1.25,2.83-3.85,2.84h-5.8v5.6c2.22,0,4.36,0,6.49,0A2.52,2.52,0,0,1,78,34a2.55,2.55,0,0,1-.85,3,4.24,4.24,0,0,1-2.1.63c-1.6.09-3.23.07-4.83,0-.94,0-1.41.25-1.37,1.26s.07,2.26,0,3.39.46,1.28,1.36,1.25q2.75-.06,5.49,0c2.07,0,3.24,1.08,3.23,2.8S77.87,49.08,75.83,49.13Zm30.82-23.71a69.83,69.83,0,0,1-4.86,6.83,10.48,10.48,0,0,0-2.66,8.25,42.09,42.09,0,0,1,0,6,3,3,0,1,1-6,0c0-3.07,0-6.14,0-9.2a4.71,4.71,0,0,0-.77-2.34c-2.11-3.11-4.32-6.15-6.5-9.22a3,3,0,0,1-.31-3.46c1.2-2.06,3.86-2,5.33.11s2.95,4.35,4.44,6.53c.23.34.51.65.89,1.15l4.74-6.87c.28-.4.54-.81.85-1.18a3.1,3.1,0,0,1,4.17-.7A3,3,0,0,1,106.65,25.42Z" transform="translate(-3.8 -7)"/><path class="cls-3" d="M362.16,28.22a24.43,24.43,0,0,0-23.86-19q-97.68,0-195.37,0c-.54,0-1.08-.05-1.62-.05a24.49,24.49,0,0,0-4.43,48.56,29.53,29.53,0,0,0,6.42.63c13.14-.09,26.28,0,39.42,0q77.47,0,154.92,0a24.48,24.48,0,0,0,24.5-30.16ZM164.65,26.29a3.66,3.66,0,0,1-1.45.29c-1.17,0-2.35,0-3.54.05-.09,0-.19.08-.46.21,0,6.44,0,12.91,0,19.31,0,1.6-.8,3.34-3,3.34a3.21,3.21,0,0,1-3.08-3.39c0-5.66-.05-11.93-.05-17.58V26.58c-1.44,0-2.72,0-4,0A2.81,2.81,0,1,1,149,21c4.42-.05,8.81-.05,13.22,0h1a2.66,2.66,0,0,1,2.9,2.94A2.37,2.37,0,0,1,164.65,26.29ZM193.6,46.83a2.61,2.61,0,0,1-2.21,2.45,3.08,3.08,0,0,1-3.29-1.18q-3.53-4.3-7.08-8.59c-.33-.4-.69-.78-1.31-1.47,0,2.8,0,5.21,0,7.62,0,1.51-.26,2.89-1.94,3.54a2.92,2.92,0,0,1-4.12-2.65c0-7.58,0-15.17,0-22.75A2.46,2.46,0,0,1,176,21a64.19,64.19,0,0,1,10.93.35c4.32.69,6.39,3.5,6.57,7.73s-1.6,6.57-5.8,8l-1.25.38c2.18,2.37,4.31,4.55,6.27,6.87A3.83,3.83,0,0,1,193.6,46.83Zm29.13,2.48a2.55,2.55,0,0,1-3.18-1.23c-.57-1.09-.8-2.34-1.32-3.44a1.78,1.78,0,0,0-1.2-.93q-4.44-.12-8.87,0a1.77,1.77,0,0,0-1.22.88,23.33,23.33,0,0,0-1,2.75,2.93,2.93,0,0,1-3.85,1.91,2.81,2.81,0,0,1-1.82-3.88q4-10.83,8-21.61a4.54,4.54,0,0,1,4.33-3.27,4.44,4.44,0,0,1,4.17,3.24c2.61,7.23,5.25,14.43,7.86,21.65a5.41,5.41,0,0,1,.19,1A2.62,2.62,0,0,1,222.73,49.31Zm30.41-2a16.29,16.29,0,0,1-7.55,2.22c-9,0-15.08-7.59-13.61-17.14,1.44-9.29,10.15-14.36,18.92-10.95A6.77,6.77,0,0,1,253,22.85a3,3,0,0,1,.47,3.7c-.89,1.26-2.09,1.3-3.44.9a18.55,18.55,0,0,0-4-1c-3.74-.26-6.09,1.41-7.33,5a10.61,10.61,0,0,0,0,7.42c1.67,4.39,5.52,6.06,9.92,4.36.55-.22,1.08-.49,1.63-.7,1.6-.62,2.91-.25,3.66,1A2.76,2.76,0,0,1,253.15,47.34Zm31.75,1a3.06,3.06,0,0,1-4,.51,6.53,6.53,0,0,1-1.34-1.14c-3.07-3.3-6.13-6.63-9.21-9.94-.24-.27-.52-.5-1.06-1,0,3.34,0,6.37,0,9.4,0,2.56-2.53,4.08-4.61,2.68a3.7,3.7,0,0,1-1.47-2.61c-.12-7.43-.09-14.86,0-22.28,0-2.13,1.28-3.34,3.14-3.31s3,1.25,3,3.45c0,2.45,0,4.9,0,7.81l8.78-9.34a10.19,10.19,0,0,1,1.52-1.43,2.82,2.82,0,0,1,3.78.52,2.5,2.5,0,0,1,.11,3.64c-2.3,2.48-4.72,4.85-7.11,7.26-.44.46-.93.87-1.53,1.44l4.38,4.66c1.89,2,3.81,3.93,5.6,6A2.67,2.67,0,0,1,284.89,48.39Zm24.52-.91a3.39,3.39,0,0,1-2.34,1.59c-3.54.17-7.09.15-10.64,0-2-.07-2.91-1.27-2.92-3.52,0-5.32,0-10.65,0-16,0-1.72,0-3.44,0-5.17.11-2.46,1.17-3.5,3.62-3.54q4.45-.06,8.87,0c2.13,0,3.42,1.18,3.37,2.88s-1.35,2.77-3.47,2.79-4.05,0-6.19,0v5.56h3.95c.81,0,1.62,0,2.42,0C308,32.34,309,33.42,309,35a2.76,2.76,0,0,1-3,2.69c-1.62,0-3.23,0-4.85,0-.42,0-.84,0-1.4.07v5.8c2.45,0,4.81-.07,7.16,0C309.07,43.67,310.43,45.67,309.41,47.48Zm28.41.31c-1,2-3.62,2.22-5.24.29-2.59-3.1-8-9.64-8.37-10.07l-.07,7.94c0,2.09-.85,3.41-3.07,3.41-2,0-2.87-1.42-2.87-3.57,0-7.8-.09-14.52,0-22.32a2.32,2.32,0,0,1,2.37-2.41,73.66,73.66,0,0,1,10.93.35c4.35.65,6.44,3.58,6.53,8.09.08,3.93-2,6.57-6.15,7.76l-1,.21C333,39.8,335,41.93,337,44,338.06,45.12,338.59,46.29,337.82,47.79Z" transform="translate(-3.8 -7)"/><path class="cls-3" d="M179.69,32.67V26a44.38,44.38,0,0,1,5,0c1.64.19,2.56,1.64,2.47,3.42a3.22,3.22,0,0,1-3,3.16c-1.39.09-2.78,0-4.38,0" transform="translate(-3.8 -7)"/><path class="cls-3" d="M216.2,38.48H209l3.61-11,3.54,11" transform="translate(-3.8 -7)"/><path class="cls-3" d="M324.19,32.94V26.26c1.67,0,3.28-.13,4.86,0s2.56,1.55,2.49,3.4a3.1,3.1,0,0,1-3,3.22,8.77,8.77,0,0,1-1,0h-3.42" transform="translate(-3.8 -7)"/><path class="cls-1" d="M369.94,14.67H369l-.77-2H367v2h-.9v-5h2.15a1.85,1.85,0,0,1,1.32.41,1.39,1.39,0,0,1,.42,1,1.31,1.31,0,0,1-.9,1.32Zm-3-2.76h1.11a1.08,1.08,0,0,0,.72-.2.7.7,0,0,0,.24-.56.67.67,0,0,0-.23-.53,1,1,0,0,0-.65-.2H367Z" transform="translate(-3.8 -7)"/><path class="cls-1" d="M368,17.4a5.2,5.2,0,1,1,5.2-5.2A5.2,5.2,0,0,1,368,17.4Zm0-9.51a4.31,4.31,0,1,0,4.31,4.31A4.32,4.32,0,0,0,368,7.89Z" transform="translate(-3.8 -7)"/></svg>